<?xml version="1.0" encoding="utf-8"?>
<svg version="1.1"
  xmlns="http://www.w3.org/2000/svg"
  x="0px" y="0px" viewBox="0 0 48 48"
  style="enable-background:new 0 0 48 48;"
  xml:space="preserve">

<!-- 아래에 색상값과 d값을 넣으세요! -->
<path 
  style="fill: #FFFFFF;"
  d="M7 40Q5.8 40 4.9 39.1Q4 38.2 4 37V11Q4 9.8 4.9 8.9Q5.8 8 7 8H41Q42.2 8 43.1 8.9Q44 9.8 44 11V37Q44 38.2 43.1 39.1Q42.2 40 41 40ZM7 25.85H30.05V17.7H7ZM30.05 37V28.85H7V37Q7 37 7 37Q7 37 7 37ZM33.05 37H41Q41 37 41 37Q41 37 41 37V17.7H33.05Z"
/>
</svg>