<?xml version="1.0" encoding="utf-8"?>
<!-- Generator: Adobe Illustrator 26.2.1, SVG Export Plug-In . SVG Version: 6.00 Build 0)  -->
<svg version="1.1" id="레이어_1" xmlns="http://www.w3.org/2000/svg" xmlns:xlink="http://www.w3.org/1999/xlink" x="0px"
	 y="0px" viewBox="0 0 600 300" style="enable-background:new 0 0 600 300;" xml:space="preserve">
<style type="text/css">
	.st0{fill:#FFFFFF;}
</style>
<g>
	<path class="st0" d="M153.26,104.52c-2.47-4.95-7.53-8.07-13.07-8.07H94.75c-8.07,0-14.61,6.54-14.61,14.61s6.54,14.61,14.61,14.61
		h16.23l-29.21,38.95l-46.74-62.32c-4.84-6.45-14-7.76-20.45-2.92c-6.45,4.84-7.76,14-2.92,20.45l51.85,69.14l-51.85,69.14
		c-4.84,6.45-3.53,15.61,2.92,20.45c2.63,1.97,5.7,2.92,8.75,2.92c4.44,0,8.83-2.02,11.7-5.84l116.86-155.81
		C155.2,115.39,155.73,109.47,153.26,104.52z"/>
	<g>
		<path class="st0" d="M140.18,203.56c-3.05,0-6.13-0.95-8.75-2.92c-6.45-4.84-7.76-14-2.92-20.45l58.43-77.9
			c2.76-3.68,7.09-5.84,11.69-5.84s8.93,2.16,11.69,5.84l58.43,77.9c3.32,4.43,3.85,10.35,1.38,15.3
			c-2.47,4.95-7.53,8.07-13.07,8.07H211.6c-8.07,0-14.61-6.54-14.61-14.61s6.54-14.61,14.61-14.61h16.23l-29.21-38.95l-46.74,62.32
			C149.01,201.54,144.62,203.56,140.18,203.56z"/>
	</g>
	<g>
		<path class="st0" d="M328.46,203.56H296c-8.07,0-14.61-6.54-14.61-14.61V33.14c0-8.07,6.54-14.61,14.61-14.61
			c8.07,0,14.61,6.54,14.61,14.61v141.2h17.85c8.07,0,14.61,6.54,14.61,14.61S336.53,203.56,328.46,203.56z"/>
	</g>
	<path class="st0" d="M573.68,107.47c-23.46-23.45-61.61-23.45-85.06,0c-0.02,0.02-0.03,0.03-0.04,0.05l-64.39,64.39
		c-12.05,12-31.64,11.97-43.7-0.09c-5.83-5.83-9.04-13.59-9.04-21.85c0-8.26,3.21-16.02,9.04-21.85
		c12.08-12.07,31.71-12.09,43.75-0.05c5.7,5.71,14.95,5.7,20.66,0c5.7-5.71,5.7-14.95,0-20.66c-23.44-23.44-61.6-23.42-85.06,0.05
		c-11.36,11.35-17.61,26.45-17.61,42.51c0,16.06,6.25,31.16,17.6,42.51c11.74,11.74,27.16,17.61,42.58,17.61
		c14.95,0,29.87-5.57,41.45-16.63c0.15-0.14,0.33-0.24,0.47-0.39l0.42-0.42c0.05-0.05,0.1-0.08,0.14-0.13
		c0.02-0.02,0.04-0.05,0.06-0.07l27.92-27.92c2.54,10.26,7.74,19.99,15.75,28c11.73,11.73,27.13,17.59,42.53,17.59
		c15.4,0,30.8-5.86,42.53-17.59C597.14,169.08,597.14,130.92,573.68,107.47z M553.02,171.87c-12.06,12.06-31.68,12.06-43.74,0
		c-12.06-12.06-12.06-31.69,0-43.75c6.03-6.03,13.95-9.05,21.87-9.05s15.84,3.02,21.87,9.05
		C565.09,140.19,565.09,159.81,553.02,171.87z"/>
</g>
</svg>
